<svg width="534" height="589" viewBox="0 0 534 589" fill="none" xmlns="http://www.w3.org/2000/svg">
<path d="M80 437.5L90 467.5" stroke="#CCF2FF" stroke-width="4" stroke-linecap="round"/>
<path d="M446 582.5L441 569.5L451 565.5L456 577.5L446 582.5Z" fill="#FFDBB8"/>
<path d="M146.046 536.408C152.009 537.567 157.271 536.31 157.798 533.599C158.325 530.888 153.918 527.751 147.954 526.592C141.991 525.433 136.729 526.69 136.202 529.401C135.675 532.112 140.082 535.249 146.046 536.408Z" fill="#CCF2FF"/>
<path d="M427.199 280.754L423.856 278.142L424.361 274.05L420.634 276.522L417.413 274.903L417.901 278.873L415.288 282.216L419.259 281.729L421.731 285.455L423.229 281.241L427.199 280.754Z" fill="#FFC2C2"/>
<path d="M48 325C45.3333 320.333 43.3333 320.667 42 326C41.3333 331.333 39.6667 331.667 37 327C34.3333 321.667 32.3333 321.667 31 327C30.3333 333 28.6667 333.333 26 328" stroke="#CCF2FF" stroke-width="4" stroke-linecap="round"/>
<path d="M74.5 138.5C67.8333 139.833 66.1667 143.5 69.5 149.5C72.8333 154.833 71.1667 158.167 64.5 159.5C58.5 160.833 56.8333 164.5 59.5 170.5C63.5 175.833 62.1667 179.167 55.5 180.5" stroke="#99FF99" stroke-width="4" stroke-linecap="round"/>
<path d="M416 356.5L423 347.5L426 360.5L416 356.5Z" fill="#FFFFCC"/>
<path d="M227 119.5L229 109.5L237 114.5L227 119.5Z" fill="#FFFFCC"/>
<path d="M99 258.5L73 264.5" stroke="#ADC2EB" stroke-width="4" stroke-linecap="round"/>
<path d="M479.526 398.353C484.948 397.299 488.659 392.929 487.816 388.592C486.973 384.255 481.895 381.593 476.473 382.647C471.052 383.701 467.341 388.071 468.184 392.408C469.027 396.745 474.105 399.407 479.526 398.353Z" fill="#CCF2FF"/>
<path d="M107.455 348.23C104.446 342.325 100.013 338.554 97.5521 339.808C95.0916 341.062 95.5361 346.865 98.5449 352.77C101.554 358.675 105.987 362.446 108.448 361.192C110.908 359.938 110.464 354.135 107.455 348.23Z" fill="#CCF2FF"/>
<path d="M192 587C194 581.667 192.333 579.667 187 581C181.667 583 180 581.333 182 576C184.667 570 183 568 177 570C171.667 572 170 570 172 564" stroke="#FFC2C2" stroke-width="4" stroke-linecap="round"/>
<path d="M298.278 425.425L299.103 420.393L304.03 418.22L298.928 415.397L298.754 410.4L294.861 413.537L289.829 412.712L292.002 417.64L289.144 421.742L295.14 421.532L298.278 425.425Z" fill="#ADC2EB"/>
<path d="M154.372 258.522C148.312 258.946 143.68 263.309 144.027 268.267C144.374 273.226 149.568 276.902 155.628 276.478C161.688 276.054 166.32 271.691 165.973 266.733C165.627 261.774 160.433 258.098 154.372 258.522Z" fill="#FFDBB8"/>
<path d="M13.5761 149.414L16.0596 146.122L20.1323 146.765L18.1523 143.752L19.7152 140.07L16.1722 140.739L12.8809 138.255L12.6292 141.407L9.61602 143.387L11.9868 145.48L13.5761 149.414Z" fill="#FFFFCC"/>
<path d="M467 214.5L465 227.5L447 225.5L449 212.5L467 214.5Z" fill="#CCF2FF"/>
<path d="M101.5 586C107.5 585.333 108.167 583.333 103.5 580C98.8333 576.667 99.1666 574.667 104.5 574C110.5 574 111.167 572.333 106.5 569C101.833 565.667 102.5 563.667 108.5 563" stroke="#FFFFCC" stroke-width="3" stroke-linecap="round"/>
<path d="M179 49.5C183 54.1666 186 53.1666 188 46.5C188.667 41.1666 191.333 40.5 196 44.5C200 49.1666 202.667 48.5 204 42.5C206 36.5 209 35.5 213 39.5" stroke="#FFFFCC" stroke-width="3" stroke-linecap="round"/>
<path d="M363 88.9999C360.333 84.3333 358.333 84.6666 357 89.9999C356.333 95.3333 354.667 95.6666 352 90.9999C349.333 85.6666 347.333 85.6666 346 90.9999C345.333 96.9999 343.667 97.3333 341 91.9999" stroke="#ADC2EB" stroke-width="3" stroke-linecap="round"/>
<path d="M208.5 524.5C205.167 519.833 202.833 520.167 201.5 525.5C199.5 530.833 196.833 531.167 193.5 526.5C190.833 521.833 188.5 522.167 186.5 527.5C185.167 532.833 182.833 533.167 179.5 528.5" stroke="#99FF99" stroke-width="3" stroke-linecap="round"/>
<path d="M68.2937 43.6459C66.9283 47.8479 68.3763 52.0844 71.5279 53.1084C74.6794 54.1324 78.341 51.5561 79.7063 47.3541C81.0717 43.152 79.6237 38.9155 76.4721 37.8915C73.3206 36.8675 69.659 39.4438 68.2937 43.6459Z" fill="#CCF2FF"/>
<path d="M384 27.5L388 55.5" stroke="#FFC2C2" stroke-width="3" stroke-linecap="round"/>
<path d="M294 238.5L296 258.5L278 251.5L294 238.5Z" fill="#ADC2EB"/>
<path d="M31.8206 570.925C30.8267 566.62 26.9673 563.835 23.2004 564.705C19.4335 565.575 17.1855 569.77 18.1794 574.075C19.1733 578.38 23.0327 581.165 26.7996 580.295C30.5665 579.425 32.8145 575.23 31.8206 570.925Z" fill="#CCF2FF"/>
<path d="M205 374.5V402.5" stroke="#FFDBB8" stroke-width="3" stroke-linecap="round"/>
<path d="M240 437.5L245 454.5L228 451.5L240 437.5Z" fill="#ADC2EB"/>
<path d="M37 358.5C35 364.5 37 367.833 43 368.5C49.6667 369.167 52 372.5 50 378.5C47.3333 385.167 49.3333 388.5 56 388.5C62.6667 389.167 65 392.5 63 398.5" stroke="#FFDBB8" stroke-width="4" stroke-linecap="round"/>
<path d="M106.051 107.603L111.409 98.2063L121.384 97.5087L113.843 90.0165L116.208 80.8292L107.509 85.4472L98.1126 80.0897L99.8077 89.9955L92.2458 96.539L102.431 98.8341L106.051 107.603Z" fill="#FFC2C2"/>
<path d="M440.353 131.599L443.501 131.899L446.125 134.372L446.424 131.224L450.322 130.324L446.724 128.076L447.023 124.928L444.55 127.551L441.177 126.277L442.826 128.976L440.353 131.599Z" fill="#ADC2EB"/>
<path d="M249.035 327.364C253.303 326.22 256.299 323.563 255.727 321.429C255.156 319.296 251.232 318.493 246.965 319.636C242.697 320.78 239.701 323.437 240.273 325.57C240.844 327.704 244.768 328.507 249.035 327.364Z" fill="#FFC2C2"/>
<path d="M522.929 180.771C517.09 179.097 511.492 180.752 510.426 184.468C509.361 188.184 513.231 192.554 519.071 194.229C524.91 195.903 530.508 194.248 531.574 190.532C532.639 186.816 528.769 182.446 522.929 180.771Z" fill="#FFC2C2"/>
<path d="M214 176.5L200 183.5L194 170.5L208 163.5L214 176.5Z" fill="#CCF2FF"/>
<path d="M370.992 290.814C371.281 285.299 368.833 280.687 365.523 280.514C362.214 280.34 359.297 284.671 359.008 290.186C358.719 295.701 361.167 300.313 364.477 300.486C367.786 300.66 370.703 296.329 370.992 290.814Z" fill="#FFFFCC"/>
<path d="M313 71.5L301 49.5" stroke="#99FF99" stroke-width="3" stroke-linecap="round"/>
<path d="M503 442.5L507 402.5" stroke="#CCF2FF" stroke-width="4" stroke-linecap="round"/>
<path d="M122 229.5L119 214.5L135 220.5L122 229.5Z" fill="#CCF2FF"/>
<path d="M298 190.5L289 182.5L302 180.5L298 190.5Z" fill="#FFFFCC"/>
<path d="M526 547.5V558.5H509V547.5H526Z" fill="#ADC2EB"/>
<path d="M367 525.5L372 516.5L385 525.5L379 533.5L367 525.5Z" fill="#99FF99"/>
<path d="M380.5 396.5C377.167 401.833 378.5 403.833 384.5 402.5C390.5 401.833 391.833 403.833 388.5 408.5C385.167 413.167 386.167 415.167 391.5 414.5C397.5 413.833 398.833 415.833 395.5 420.5" stroke="#ADC2EB" stroke-width="3" stroke-linecap="round"/>
<path d="M82.046 521.306C78.8146 518.293 75.2791 516.832 74.1491 518.044C73.0192 519.256 74.7227 522.681 77.954 525.694C81.1853 528.707 84.7208 530.168 85.8508 528.956C86.9808 527.744 85.2773 524.319 82.046 521.306Z" fill="#ADC2EB"/>
<path d="M314 572.5L303 579.5L306 564.5L314 572.5Z" fill="#99FF99"/>
<path d="M293.01 473.089L284.635 478.554L274.896 476.074L279.08 485.046L272.841 493.416L282.666 492.736L288.132 501.11L291.552 491.713L301.121 488.811L292.409 483.512L293.01 473.089Z" fill="#ADC2EB"/>
<path d="M402.854 143.973C400.582 140.846 396.566 139.889 393.885 141.837C391.205 143.785 390.874 147.899 393.146 151.027C395.418 154.154 399.434 155.111 402.114 153.163C404.795 151.215 405.126 147.101 402.854 143.973Z" fill="#FFDBB8"/>
<path d="M374 341.5L368 356.5L359 340.5L374 341.5Z" fill="#99FF99"/>
<path d="M146.5 133C152.5 132.333 153.167 130.333 148.5 127C143.833 123.667 144.167 121.667 149.5 121C155.5 121 156.167 119.333 151.5 116C146.833 112.667 147.5 110.667 153.5 110" stroke="#FFC2C2" stroke-width="3" stroke-linecap="round"/>
<path d="M370 219.5L357 209.5L374 205.5L370 219.5Z" fill="#99FF99"/>
<path d="M524 486.5L532 498.5L521 505.5L513 493.5L524 486.5Z" fill="#FFC2C2"/>
<path d="M515.047 318.827C510.869 320.265 508.357 323.971 509.436 327.105C510.515 330.238 514.776 331.612 518.953 330.173C523.131 328.735 525.643 325.029 524.564 321.895C523.485 318.762 519.224 317.388 515.047 318.827Z" fill="#ADC2EB"/>
<path d="M370.409 571.394L376.135 577.07L375.996 585.315L382.379 580.813L389.848 583.85L387.796 576.053L392.505 570.068L385.485 569.222L380.983 562.84L377.947 570.308L370.409 571.394Z" fill="#99FF99"/>
<path d="M170.868 224.014L176.421 222.935L180.566 225.73L180.316 220.737L184.77 217.71L180.066 215.743L178.427 211.019L175.631 215.164L169.808 214.855L172.835 219.31L170.868 224.014Z" fill="#ADC2EB"/>
<path d="M33.0337 242.932C29.5019 241.36 25.7284 242.13 24.6052 244.653C23.482 247.176 25.4346 250.495 28.9663 252.068C32.4981 253.64 36.2717 252.87 37.3948 250.347C38.518 247.825 36.5655 244.505 33.0337 242.932Z" fill="#FFFFCC"/>
<path d="M469 517.5H453L464 503.5L469 517.5Z" fill="#FFC2C2"/>
<path d="M444 463.5L430 453.5L449 449.5L444 463.5Z" fill="#ADC2EB"/>
<path d="M481 62.5L483 51.5L491 61.5L481 62.5Z" fill="#FFC2C2"/>
<path d="M359 471.5L346 476.5L344 464.5L359 471.5Z" fill="#99FF99"/>
<path d="M53 444.5L48 454.5L30 447.5L35 436.5L53 444.5Z" fill="#FFC2C2"/>
<path d="M417 91.5L431 87.5L432 100.5L417 91.5Z" fill="#FFC2C2"/>
<path d="M36 54.5L38 72.5L18 74.5L16 56.5L36 54.5Z" fill="#FFC2C2"/>
<path d="M151 466.5L137 460.5L142 449.5L156 455.5L151 466.5Z" fill="#ADC2EB"/>
<path d="M486.913 239.499C492.435 239.596 496.95 237.435 496.998 234.674C497.047 231.913 492.609 229.597 487.087 229.501C481.565 229.404 477.05 231.564 477.001 234.325C476.953 237.086 481.391 239.403 486.913 239.499Z" fill="#CCF2FF"/>
<path d="M272.015 25.766C267.491 22.5982 262.026 22.5974 259.809 25.7643C257.591 28.9311 259.461 34.0663 263.985 37.2341C268.509 40.4019 273.974 40.4026 276.192 37.2358C278.409 34.0689 276.539 28.9337 272.015 25.766Z" fill="#ADC2EB"/>
<path d="M214 244.5L238 248.5" stroke="#FFC2C2" stroke-width="4" stroke-linecap="round"/>
<path d="M162 341.5L179 336.5V352.5L162 341.5Z" fill="#ADC2EB"/>
<path d="M516 114C510 114 509 116 513 120C517 124.667 516 127 510 127C504 127 503 129 507 133C511 137.667 510 139.667 504 139" stroke="#99FF99" stroke-width="3" stroke-linecap="round"/>
<path d="M468 224.5L460 210.5L478 213.5L468 224.5Z" fill="#FFC2C2"/>
<path d="M305.5 296.5C299.5 297.167 298.167 300.167 301.5 305.5C304.833 310.833 303.5 313.833 297.5 314.5C290.833 315.167 289.5 318.167 293.5 323.5C296.833 328.833 295.167 331.833 288.5 332.5" stroke="#CCF2FF" stroke-width="4" stroke-linecap="round"/>
<path d="M146 40.5L139 47.5L135 39.5L146 40.5Z" fill="#99FF99"/>
<path d="M47 300.5L55 307.5L47 317.5L39 310.5L47 300.5Z" fill="#FFC2C2"/>
<path d="M128.963 398.109C129.299 395.369 127.35 392.874 124.609 392.537C121.869 392.201 119.374 394.15 119.037 396.891C118.701 399.632 120.65 402.126 123.391 402.463C126.132 402.799 128.626 400.85 128.963 398.109Z" fill="#99FF99"/>
<path d="M16 494C10 494 8.66667 496.667 12 502C16 506.667 15 509 9 509C3 509.667 1.66667 512.667 5 518C9 522.667 8 525 2 525" stroke="#FFFFCC" stroke-width="4" stroke-linecap="round"/>
<path d="M520.5 446.5C517.167 441.833 514.5 442.167 512.5 447.5C510.5 453.5 507.833 453.833 504.5 448.5C501.833 443.833 499.5 444.167 497.5 449.5C495.5 455.5 492.833 455.833 489.5 450.5" stroke="#FFFFCC" stroke-width="4" stroke-linecap="round"/>
<path d="M45 230.5L39 222.5L47 219.5L45 230.5Z" fill="#FFDBB8"/>
<path d="M25 323.5L27 306.5L44 308.5L42 325.5L25 323.5Z" fill="#FFDBB8"/>
<path d="M262.5 75.5C263.833 68.8333 261.167 65.8333 254.5 66.5C247.833 67.1667 245.167 64.1667 246.5 57.5C248.5 51.5 246.167 48.8333 239.5 49.5C232.833 49.5 230.167 46.1667 231.5 39.5" stroke="#FFDBB8" stroke-width="4" stroke-linecap="round"/>
<path d="M229 345.5L248 344.5L238 361.5L229 345.5Z" fill="#FFDBB8"/>
<path d="M324 2C320.667 7.33333 322 9.66667 328 9C334 7.66667 335.333 9.66667 332 15C329.333 19.6667 330.667 21.6667 336 21C342 20.3333 343.333 22.3333 340 27" stroke="#FFC2C2" stroke-width="4" stroke-linecap="round"/>
<path d="M274.5 457.5C268.5 456.833 267.5 458.833 271.5 463.5C275.5 467.5 274.833 469.5 269.5 469.5C263.5 468.833 262.5 470.833 266.5 475.5C270.5 479.5 269.5 481.5 263.5 481.5" stroke="#99FF99" stroke-width="4" stroke-linecap="round"/>
<path d="M202 43.5L213 42.5L211 52.5L202 43.5Z" fill="#CCF2FF"/>
<path d="M306 107.5L320 113.5L315 123.5L302 117.5L306 107.5Z" fill="#ADC2EB"/>
<path d="M213 468.5L171 484.5" stroke="#ADC2EB" stroke-width="3" stroke-linecap="round"/>
<path d="M141 287.5L151 299.5L135 301.5L141 287.5Z" fill="#ADC2EB"/>
<path d="M238 381.5L223 390.5L215 376.5L229 367.5L238 381.5Z" fill="#CCF2FF"/>
<path d="M496 138.5L489 146.5L483 138.5H496Z" fill="#FFC2C2"/>
<path d="M254 461.5L248 447.5L262 441.5L268 455.5L254 461.5Z" fill="#FFC2C2"/>
<path d="M173 404.5L179 412.5L169 413.5L173 404.5Z" fill="#FFFFCC"/>
<path d="M79 127.5L71 141.5L64 127.5H79Z" fill="#FFC2C2"/>
<path d="M162 377.5L174 385.5L168 393.5L156 385.5L162 377.5Z" fill="#FFFFCC"/>
<path d="M62.3023 221.282C66.4799 219.844 69.2834 216.984 68.5642 214.895C67.845 212.807 63.8753 212.28 59.6978 213.718C55.5202 215.156 52.7167 218.016 53.4359 220.105C54.1551 222.193 58.1247 222.721 62.3023 221.282Z" fill="#FFDBB8"/>
<path d="M71 358.5L69 340.5L82 338.5L84 356.5L71 358.5Z" fill="#FFFFCC"/>
<path d="M208.532 438.613C210.165 435.109 209.461 431.323 206.958 430.156C204.456 428.989 201.102 430.883 199.468 434.387C197.835 437.891 198.539 441.677 201.042 442.844C203.544 444.011 206.898 442.117 208.532 438.613Z" fill="#ADC2EB"/>
<path d="M324.5 155.5C327.833 160.167 329.5 159.833 329.5 154.5C329.5 148.5 331.167 147.833 334.5 152.5C337.833 157.167 339.167 156.833 338.5 151.5C339.167 145.5 340.833 144.833 343.5 149.5" stroke="#99FF99" stroke-width="4" stroke-linecap="round"/>
<path d="M434 262.5L440 274.5L426 271.5L434 262.5Z" fill="#FFDBB8"/>
<path d="M226 16.5H184" stroke="#FFFFCC" stroke-width="4" stroke-linecap="round"/>
<path d="M165 17.5L171 29.5L155 36.5L150 24.5L165 17.5Z" fill="#FFDBB8"/>
<path d="M328 509.5L348 529.5" stroke="#99FF99" stroke-width="3" stroke-linecap="round"/>
<path d="M122.276 510.154C118.831 511.909 117.259 515.725 118.763 518.678C120.267 521.63 124.279 522.601 127.724 520.846C131.169 519.091 132.741 515.275 131.237 512.322C129.733 509.37 125.721 508.399 122.276 510.154Z" fill="#CCF2FF"/>
<path d="M431 371.5L446 364.5L452 378.5L438 385.5L431 371.5Z" fill="#FFFFCC"/>
<path d="M104.872 42.6247C106.363 36.1671 105.39 30.4287 102.699 29.8075C100.009 29.1863 96.619 33.9176 95.1281 40.3752C93.6373 46.8327 94.6099 52.5712 97.3006 53.1924C99.9912 53.8136 103.381 49.0823 104.872 42.6247Z" fill="#FFFFCC"/>
<path d="M141 241.5L145 226.5L155 238.5L141 241.5Z" fill="#ADC2EB"/>
</svg>
